# xmcd CD database file
#
# Track frame offsets:
#	150
#	21650
#	41700
#	72875
#	91825
#	122550
#
# Disc length: 2479 seconds
#
# Revision: 0
# Processed by: cddbd v1.4PL0 Copyright (c) Steve Scherf et al.
# Submitted via: CDex 1.50beta9
#
DISCID=4c09ad06
DTITLE=George Adams Quintet - Paradise Space Shuttle
DYEAR=1979
DGENRE=Jazz
TTITLE0=Intentions
TTITLE1=Send in the clowns
TTITLE2=Metamorphosis for Mingus
TTITLE3=Paradise Space Shuttle
TTITLE4=City of Peace
TTITLE5=Funk-a-roonie-peacock
EXTD=YEAR: 1979
EXTT0=
EXTT1=
EXTT2=
EXTT3=
EXTT4=
EXTT5=
PLAYORDER=
